<svg xmlns="http://www.w3.org/2000/svg" viewBox="0 0 460 300" fill="none" preserveAspectRatio="xMidYMid slice">
<path d="M430.0 330.0 L428.8 328.1 L427.6 326.2 L426.6 324.2 L425.7 322.2 L425.0 320.1 L424.5 318.0 L424.2 315.9 L424.1 313.9 L424.3 311.8 L424.7 309.8 L425.3 307.9 L426.2 306.0 L427.3 304.3 L428.6 302.6 L430.1 301.0 L431.8 299.6 L433.5 298.3 L435.4 297.1 L437.4 296.0 L439.4 295.0 L441.4 294.1 L443.4 293.2 L445.3 292.4 L447.2 291.6 L449.0 290.8 L450.6 290.0 L452.2 289.2 L453.6 288.3 L455.0 287.3 L456.2 286.2 L457.3 285.0 L458.3 283.6 L459.2 282.2 L460.0 280.6 L460.8 279.0 L461.6 277.2 L462.4 275.3 L463.2 273.4 L464.1 271.4 L465.0 269.4 L466.0 267.4 L467.1 265.4 L468.3 263.5 L469.6 261.8 L471.0 260.1 L472.6 258.6 L474.3 257.3 L476.0 256.2 L477.9 255.3 L479.8 254.7 L481.8 254.3 L483.9 254.1 L485.9 254.2 L488.0 254.5 L490.1 255.0 L492.2 255.7 L494.2 256.6 L496.2 257.6 L498.1 258.8 L500.0 260.0" stroke="#B0AE9E" stroke-width="1" stroke-opacity="0.9"/>
<path d="M409.2 330.0 L408.1 327.6 L407.3 325.1 L406.7 322.7 L406.3 320.2 L406.1 317.6 L406.2 315.1 L406.6 312.7 L407.2 310.3 L408.1 307.9 L409.2 305.7 L410.5 303.5 L412.0 301.4 L413.7 299.5 L415.6 297.6 L417.5 295.8 L419.6 294.2 L421.7 292.6 L423.8 291.2 L425.9 289.8 L428.0 288.4 L430.0 287.1 L431.9 285.8 L433.7 284.5 L435.5 283.1 L437.1 281.7 L438.6 280.2 L439.9 278.7 L441.2 277.0 L442.4 275.3 L443.4 273.4 L444.5 271.5 L445.5 269.4 L446.4 267.3 L447.4 265.1 L448.4 262.8 L449.5 260.4 L450.6 258.1 L451.8 255.8 L453.1 253.5 L454.6 251.3 L456.2 249.2 L457.9 247.3 L459.7 245.5 L461.7 243.9 L463.8 242.5 L466.0 241.4 L468.3 240.5 L470.7 239.8 L473.2 239.4 L475.7 239.2 L478.2 239.2 L480.8 239.5 L483.3 240.0 L485.9 240.7 L488.4 241.5 L490.8 242.5 L493.2 243.5 L495.5 244.6 L497.8 245.7 L500.0 246.8" stroke="#B0AE9E" stroke-width="1" stroke-opacity="0.855"/>
<path d="M389.3 330.0 L388.7 327.1 L388.4 324.2 L388.4 321.2 L388.6 318.3 L389.1 315.4 L389.9 312.6 L390.9 309.8 L392.2 307.1 L393.7 304.5 L395.4 302.0 L397.2 299.5 L399.2 297.2 L401.2 295.0 L403.3 292.9 L405.5 290.9 L407.6 288.9 L409.8 287.0 L411.8 285.1 L413.9 283.2 L415.8 281.4 L417.6 279.5 L419.3 277.6 L420.9 275.6 L422.3 273.6 L423.7 271.4 L425.0 269.2 L426.2 266.9 L427.3 264.6 L428.4 262.1 L429.5 259.5 L430.6 256.9 L431.8 254.2 L433.0 251.5 L434.3 248.8 L435.7 246.1 L437.2 243.5 L438.8 241.0 L440.6 238.5 L442.5 236.2 L444.6 234.1 L446.9 232.2 L449.3 230.4 L451.8 228.9 L454.5 227.7 L457.2 226.7 L460.1 225.9 L463.0 225.5 L465.9 225.2 L469.0 225.2 L472.0 225.4 L475.0 225.7 L478.0 226.3 L480.9 227.0 L483.8 227.7 L486.6 228.6 L489.4 229.5 L492.2 230.3 L494.8 231.2 L497.4 232.0 L500.0 232.7" stroke="#B0AE9E" stroke-width="1" stroke-opacity="0.81"/>
<path d="M371.0 330.0 L371.1 326.6 L371.4 323.3 L372.0 319.9 L372.9 316.6 L374.0 313.4 L375.4 310.3 L377.0 307.2 L378.7 304.2 L380.6 301.3 L382.6 298.5 L384.6 295.8 L386.8 293.2 L388.9 290.7 L391.0 288.2 L393.1 285.7 L395.1 283.3 L397.0 280.9 L398.8 278.4 L400.5 276.0 L402.1 273.5 L403.6 270.9 L405.0 268.3 L406.4 265.6 L407.6 262.9 L408.8 260.0 L410.0 257.1 L411.1 254.1 L412.3 251.0 L413.5 248.0 L414.8 244.8 L416.2 241.7 L417.7 238.6 L419.4 235.6 L421.2 232.7 L423.1 229.8 L425.3 227.2 L427.6 224.6 L430.1 222.3 L432.7 220.2 L435.5 218.3 L438.5 216.7 L441.5 215.3 L444.7 214.1 L448.0 213.3 L451.4 212.6 L454.8 212.2 L458.2 212.1 L461.7 212.1 L465.1 212.2 L468.5 212.6 L471.9 213.0 L475.2 213.5 L478.5 214.1 L481.7 214.7 L484.9 215.2 L488.0 215.8 L491.0 216.2 L494.1 216.6 L497.0 216.8 L500.0 217.0" stroke="#B0AE9E" stroke-width="1" stroke-opacity="0.765"/>
<path d="M354.7 330.0 L355.4 326.2 L356.3 322.5 L357.5 318.8 L358.8 315.2 L360.4 311.6 L362.1 308.2 L364.0 304.8 L365.9 301.5 L367.9 298.3 L369.9 295.1 L371.9 292.1 L373.9 289.0 L375.8 286.0 L377.7 283.0 L379.4 280.1 L381.1 277.1 L382.7 274.0 L384.1 271.0 L385.5 267.8 L386.8 264.6 L388.0 261.4 L389.2 258.0 L390.4 254.7 L391.5 251.2 L392.7 247.7 L394.0 244.1 L395.3 240.6 L396.8 237.0 L398.3 233.5 L400.1 230.1 L402.0 226.7 L404.0 223.4 L406.3 220.3 L408.8 217.3 L411.4 214.6 L414.3 212.0 L417.3 209.7 L420.5 207.6 L423.9 205.8 L427.4 204.2 L431.0 202.9 L434.7 201.8 L438.4 201.0 L442.3 200.3 L446.1 199.9 L450.0 199.7 L453.8 199.6 L457.6 199.6 L461.4 199.7 L465.1 199.9 L468.8 200.1 L472.4 200.3 L476.0 200.5 L479.5 200.6 L483.0 200.6 L486.4 200.6 L489.8 200.4 L493.2 200.1 L496.6 199.8 L500.0 199.3" stroke="#B0AE9E" stroke-width="1" stroke-opacity="0.72"/>
<path d="M340.2 330.0 L341.3 325.8 L342.6 321.8 L344.1 317.7 L345.7 313.8 L347.5 309.9 L349.3 306.1 L351.1 302.4 L352.9 298.7 L354.7 295.1 L356.5 291.5 L358.2 288.0 L359.8 284.4 L361.3 280.9 L362.8 277.3 L364.1 273.7 L365.4 270.1 L366.6 266.4 L367.7 262.6 L368.8 258.8 L369.9 254.9 L371.0 251.0 L372.2 247.0 L373.4 243.0 L374.7 239.0 L376.1 234.9 L377.7 231.0 L379.4 227.0 L381.4 223.2 L383.5 219.5 L385.9 215.9 L388.4 212.4 L391.2 209.2 L394.2 206.1 L397.4 203.3 L400.8 200.7 L404.4 198.4 L408.1 196.3 L412.0 194.5 L416.0 193.0 L420.1 191.6 L424.3 190.5 L428.5 189.6 L432.7 188.9 L436.9 188.3 L441.1 187.9 L445.3 187.5 L449.4 187.2 L453.5 187.0 L457.6 186.7 L461.5 186.5 L465.5 186.2 L469.3 185.8 L473.2 185.3 L477.0 184.8 L480.8 184.2 L484.6 183.4 L488.4 182.6 L492.2 181.7 L496.1 180.8 L500.0 179.8" stroke="#B0AE9E" stroke-width="1" stroke-opacity="0.675"/>
<path d="M326.9 330.0 L328.2 325.5 L329.6 321.1 L331.1 316.7 L332.7 312.4 L334.2 308.2 L335.8 304.0 L337.3 299.8 L338.8 295.7 L340.2 291.6 L341.5 287.5 L342.8 283.4 L343.9 279.3 L345.0 275.1 L346.0 270.9 L347.0 266.6 L348.0 262.3 L348.9 257.9 L349.9 253.5 L350.9 249.1 L352.0 244.6 L353.2 240.1 L354.6 235.6 L356.1 231.1 L357.8 226.7 L359.7 222.4 L361.9 218.1 L364.2 214.0 L366.8 210.1 L369.7 206.3 L372.8 202.8 L376.1 199.4 L379.6 196.3 L383.4 193.5 L387.3 190.8 L391.4 188.5 L395.6 186.3 L400.0 184.5 L404.4 182.8 L408.9 181.3 L413.4 180.1 L418.0 179.0 L422.5 178.0 L427.1 177.1 L431.6 176.3 L436.0 175.5 L440.4 174.8 L444.8 174.0 L449.1 173.3 L453.3 172.4 L457.5 171.5 L461.7 170.5 L465.9 169.5 L470.0 168.3 L474.2 167.1 L478.4 165.8 L482.6 164.5 L486.9 163.1 L491.2 161.8 L495.6 160.4 L500.0 159.1" stroke="#B0AE9E" stroke-width="1" stroke-opacity="0.63"/>
<path d="M313.8 330.0 L315.0 325.2 L316.2 320.4 L317.5 315.6 L318.7 310.9 L319.8 306.3 L320.9 301.6 L322.0 297.0 L322.9 292.4 L323.8 287.7 L324.7 283.0 L325.5 278.3 L326.2 273.5 L326.9 268.7 L327.7 263.8 L328.4 258.9 L329.3 254.0 L330.2 249.0 L331.3 244.0 L332.5 239.1 L333.9 234.1 L335.5 229.2 L337.3 224.3 L339.4 219.6 L341.7 215.0 L344.3 210.5 L347.1 206.2 L350.2 202.1 L353.6 198.2 L357.2 194.5 L361.1 191.1 L365.1 187.9 L369.3 184.9 L373.7 182.2 L378.3 179.7 L382.9 177.4 L387.7 175.4 L392.4 173.5 L397.3 171.8 L402.1 170.2 L406.9 168.8 L411.7 167.4 L416.5 166.0 L421.2 164.7 L425.8 163.4 L430.5 162.1 L435.0 160.8 L439.6 159.3 L444.1 157.9 L448.5 156.3 L453.0 154.7 L457.5 153.0 L462.0 151.3 L466.5 149.5 L471.1 147.7 L475.8 145.9 L480.5 144.2 L485.2 142.5 L490.1 140.9 L495.0 139.5 L500.0 138.2" stroke="#B0AE9E" stroke-width="1" stroke-opacity="0.585"/>
<path d="M300.1 330.0 L300.9 324.8 L301.6 319.6 L302.4 314.4 L303.1 309.3 L303.7 304.2 L304.2 299.0 L304.7 293.8 L305.2 288.6 L305.6 283.3 L306.1 278.0 L306.5 272.7 L307.0 267.3 L307.6 261.9 L308.3 256.4 L309.1 250.9 L310.1 245.5 L311.3 240.0 L312.8 234.6 L314.4 229.2 L316.4 224.0 L318.6 218.8 L321.0 213.8 L323.8 208.9 L326.9 204.2 L330.2 199.7 L333.9 195.5 L337.7 191.4 L341.8 187.6 L346.1 184.0 L350.6 180.6 L355.3 177.5 L360.1 174.6 L365.0 171.9 L369.9 169.4 L375.0 167.0 L380.0 164.8 L385.0 162.7 L390.1 160.7 L395.1 158.8 L400.0 156.8 L404.9 154.9 L409.8 153.0 L414.7 151.1 L419.5 149.1 L424.2 147.1 L429.0 145.0 L433.7 142.8 L438.5 140.6 L443.2 138.3 L448.0 136.1 L452.9 133.8 L457.8 131.5 L462.8 129.3 L467.9 127.2 L473.0 125.2 L478.3 123.3 L483.6 121.6 L489.0 120.1 L494.5 118.9 L500.0 117.9" stroke="#B0AE9E" stroke-width="1" stroke-opacity="0.54"/>
<path d="M284.8 330.0 L285.1 324.4 L285.3 318.7 L285.4 313.1 L285.5 307.5 L285.6 301.8 L285.6 296.0 L285.7 290.3 L285.8 284.5 L286.0 278.6 L286.2 272.7 L286.6 266.8 L287.1 260.8 L287.9 254.9 L288.8 248.9 L290.0 243.0 L291.4 237.1 L293.1 231.3 L295.1 225.6 L297.5 220.0 L300.1 214.6 L303.1 209.3 L306.3 204.2 L309.8 199.3 L313.7 194.6 L317.7 190.2 L322.1 185.9 L326.6 181.9 L331.3 178.1 L336.1 174.5 L341.1 171.1 L346.2 167.9 L351.3 164.9 L356.5 162.0 L361.7 159.2 L366.9 156.5 L372.1 153.9 L377.2 151.3 L382.3 148.8 L387.4 146.2 L392.4 143.6 L397.4 141.0 L402.4 138.4 L407.3 135.7 L412.3 133.0 L417.2 130.2 L422.2 127.4 L427.2 124.6 L432.3 121.7 L437.5 119.0 L442.7 116.2 L448.0 113.6 L453.5 111.1 L459.0 108.7 L464.6 106.6 L470.3 104.6 L476.1 102.9 L482.0 101.5 L488.0 100.4 L494.0 99.6 L500.0 99.2" stroke="#B0AE9E" stroke-width="1" stroke-opacity="0.495"/>
<path d="M267.7 330.0 L267.3 323.9 L266.9 317.8 L266.5 311.6 L266.2 305.4 L265.8 299.2 L265.6 292.9 L265.5 286.5 L265.5 280.1 L265.6 273.7 L266.0 267.3 L266.6 260.9 L267.4 254.4 L268.6 248.0 L270.0 241.7 L271.8 235.5 L273.9 229.3 L276.3 223.3 L279.0 217.4 L282.1 211.7 L285.5 206.2 L289.2 200.8 L293.2 195.7 L297.4 190.8 L301.9 186.1 L306.6 181.6 L311.4 177.3 L316.4 173.2 L321.5 169.3 L326.7 165.5 L331.9 161.9 L337.2 158.4 L342.4 155.0 L347.7 151.7 L353.0 148.4 L358.2 145.2 L363.4 141.9 L368.5 138.7 L373.6 135.4 L378.7 132.1 L383.8 128.8 L388.9 125.4 L394.0 122.0 L399.2 118.6 L404.4 115.2 L409.6 111.8 L414.9 108.4 L420.4 105.1 L425.9 101.9 L431.5 98.9 L437.3 96.0 L443.2 93.3 L449.2 90.8 L455.3 88.6 L461.5 86.7 L467.8 85.1 L474.1 83.8 L480.6 82.9 L487.0 82.3 L493.5 82.2 L500.0 82.3" stroke="#B0AE9E" stroke-width="1" stroke-opacity="0.45"/>
<path d="M248.6 330.0 L247.8 323.4 L247.0 316.7 L246.2 310.0 L245.6 303.3 L245.2 296.5 L244.9 289.6 L244.9 282.7 L245.0 275.8 L245.5 268.9 L246.3 262.0 L247.4 255.2 L248.8 248.4 L250.6 241.7 L252.7 235.1 L255.2 228.6 L258.0 222.3 L261.2 216.1 L264.7 210.1 L268.5 204.3 L272.5 198.7 L276.9 193.3 L281.4 188.1 L286.2 183.0 L291.1 178.2 L296.1 173.6 L301.3 169.1 L306.5 164.7 L311.7 160.5 L317.0 156.3 L322.3 152.3 L327.6 148.3 L332.8 144.3 L338.0 140.4 L343.2 136.4 L348.4 132.5 L353.6 128.5 L358.7 124.5 L363.9 120.4 L369.1 116.4 L374.3 112.3 L379.6 108.3 L385.0 104.2 L390.4 100.3 L396.0 96.3 L401.6 92.5 L407.4 88.9 L413.4 85.4 L419.5 82.1 L425.7 79.1 L432.0 76.3 L438.5 73.8 L445.1 71.6 L451.8 69.8 L458.6 68.4 L465.4 67.3 L472.3 66.6 L479.2 66.2 L486.2 66.2 L493.1 66.6 L500.0 67.4" stroke="#B0AE9E" stroke-width="1" stroke-opacity="0.405"/>
<path d="M228.2 330.0 L227.1 322.9 L226.1 315.6 L225.4 308.4 L224.8 301.1 L224.5 293.7 L224.5 286.4 L224.9 279.0 L225.5 271.7 L226.5 264.3 L227.9 257.1 L229.7 249.9 L231.8 242.9 L234.3 235.9 L237.2 229.1 L240.4 222.5 L243.9 216.0 L247.7 209.7 L251.9 203.6 L256.2 197.6 L260.8 191.9 L265.5 186.3 L270.4 180.9 L275.4 175.7 L280.5 170.5 L285.7 165.5 L290.9 160.7 L296.1 155.8 L301.3 151.1 L306.5 146.4 L311.7 141.7 L316.9 137.0 L322.0 132.3 L327.2 127.6 L332.3 122.9 L337.5 118.2 L342.7 113.4 L347.9 108.7 L353.2 104.0 L358.6 99.3 L364.1 94.6 L369.7 90.1 L375.5 85.6 L381.4 81.3 L387.5 77.2 L393.7 73.3 L400.1 69.6 L406.6 66.2 L413.3 63.1 L420.1 60.3 L427.1 57.9 L434.2 55.9 L441.4 54.2 L448.6 52.9 L456.0 51.9 L463.3 51.4 L470.7 51.2 L478.1 51.4 L485.4 51.9 L492.7 52.7 L500.0 53.8" stroke="#B0AE9E" stroke-width="1" stroke-opacity="0.36"/>
<path d="M207.3 330.0 L206.2 322.3 L205.4 314.6 L204.8 306.8 L204.6 299.0 L204.8 291.1 L205.3 283.3 L206.3 275.6 L207.6 267.8 L209.3 260.2 L211.4 252.7 L213.8 245.2 L216.7 237.9 L219.9 230.8 L223.4 223.8 L227.2 217.0 L231.2 210.3 L235.5 203.9 L240.0 197.5 L244.7 191.4 L249.5 185.4 L254.4 179.5 L259.3 173.7 L264.4 168.1 L269.4 162.5 L274.5 157.0 L279.5 151.5 L284.6 146.0 L289.7 140.6 L294.7 135.2 L299.8 129.8 L304.8 124.3 L309.9 118.9 L315.0 113.4 L320.2 108.0 L325.5 102.6 L330.8 97.2 L336.3 91.8 L341.9 86.6 L347.7 81.5 L353.6 76.5 L359.8 71.7 L366.0 67.1 L372.5 62.8 L379.2 58.7 L386.1 54.9 L393.1 51.5 L400.3 48.4 L407.6 45.7 L415.1 43.3 L422.7 41.4 L430.3 39.8 L438.1 38.6 L445.8 37.8 L453.6 37.3 L461.5 37.2 L469.2 37.4 L477.0 37.9 L484.7 38.6 L492.4 39.6 L500.0 40.7" stroke="#B0AE9E" stroke-width="1" stroke-opacity="0.315"/>
<path d="M186.7 330.0 L186.0 321.8 L185.6 313.5 L185.6 305.3 L185.9 297.0 L186.7 288.8 L187.9 280.6 L189.5 272.5 L191.5 264.4 L193.9 256.5 L196.7 248.7 L199.8 241.1 L203.2 233.6 L206.9 226.2 L210.8 219.0 L214.9 211.9 L219.3 205.0 L223.8 198.2 L228.4 191.6 L233.1 185.1 L237.8 178.6 L242.6 172.3 L247.4 166.0 L252.3 159.8 L257.1 153.5 L262.0 147.4 L266.8 141.2 L271.7 135.0 L276.6 128.8 L281.5 122.7 L286.5 116.5 L291.5 110.3 L296.7 104.2 L301.9 98.1 L307.3 92.0 L312.8 86.1 L318.5 80.3 L324.4 74.6 L330.5 69.1 L336.9 63.8 L343.4 58.7 L350.1 53.9 L357.1 49.5 L364.2 45.3 L371.6 41.5 L379.1 38.1 L386.8 35.0 L394.6 32.4 L402.5 30.1 L410.6 28.2 L418.7 26.7 L426.9 25.5 L435.1 24.7 L443.3 24.2 L451.5 24.0 L459.7 24.1 L467.9 24.4 L476.0 24.9 L484.0 25.6 L492.0 26.4 L500.0 27.3" stroke="#B0AE9E" stroke-width="1" stroke-opacity="0.27"/>
<path d="M167.5 330.0 L167.3 321.3 L167.5 312.6 L168.1 303.9 L169.1 295.2 L170.6 286.6 L172.4 278.1 L174.7 269.7 L177.3 261.4 L180.2 253.2 L183.4 245.2 L186.9 237.3 L190.6 229.5 L194.5 221.8 L198.6 214.3 L202.8 206.9 L207.2 199.6 L211.6 192.4 L216.0 185.3 L220.5 178.3 L225.0 171.3 L229.6 164.3 L234.1 157.3 L238.7 150.4 L243.3 143.5 L247.9 136.6 L252.6 129.7 L257.3 122.7 L262.2 115.8 L267.1 109.0 L272.2 102.2 L277.4 95.4 L282.7 88.7 L288.3 82.2 L294.1 75.7 L300.1 69.5 L306.4 63.5 L312.8 57.7 L319.6 52.2 L326.5 46.9 L333.7 42.0 L341.2 37.5 L348.8 33.3 L356.7 29.5 L364.7 26.1 L372.8 23.0 L381.1 20.4 L389.6 18.1 L398.0 16.2 L406.6 14.6 L415.2 13.4 L423.8 12.5 L432.4 11.8 L440.9 11.4 L449.5 11.1 L458.0 11.1 L466.5 11.2 L474.9 11.4 L483.3 11.7 L491.7 12.1 L500.0 12.5" stroke="#B0AE9E" stroke-width="1" stroke-opacity="0.225"/>
</svg>